<mxfile host="app.diagrams.net" agent="Mozilla/5.0 (Windows NT 6.1; Win64; x64) AppleWebKit/537.36 (KHTML, like Gecko) Chrome/109.0.0.0 Safari/537.36" version="24.8.3">
  <diagram name="Page-1" id="ML8d5t-c3MVNyDWE9D2q">
    <mxGraphModel dx="567" dy="449" grid="1" gridSize="10" guides="1" tooltips="1" connect="1" arrows="1" fold="1" page="1" pageScale="1" pageWidth="850" pageHeight="1100" math="1" shadow="0">
      <root>
        <mxCell id="0" />
        <mxCell id="1" parent="0" />
        <mxCell id="SU4ozTy5xE0BFZdqBOHz-7" value="" style="rounded=0;whiteSpace=wrap;html=1;fillColor=none;strokeWidth=3;" parent="1" vertex="1">
          <mxGeometry x="222.76" y="260" width="80" height="40" as="geometry" />
        </mxCell>
        <mxCell id="SU4ozTy5xE0BFZdqBOHz-8" value="" style="endArrow=none;html=1;rounded=0;exitX=0.5;exitY=1;exitDx=0;exitDy=0;strokeWidth=3;" parent="1" source="SU4ozTy5xE0BFZdqBOHz-7" edge="1">
          <mxGeometry width="50" height="50" relative="1" as="geometry">
            <mxPoint x="212.76" y="310" as="sourcePoint" />
            <mxPoint x="262.76" y="260" as="targetPoint" />
          </mxGeometry>
        </mxCell>
        <mxCell id="SU4ozTy5xE0BFZdqBOHz-9" value="" style="endArrow=blockThin;html=1;rounded=0;endFill=1;strokeWidth=2;" parent="1" edge="1">
          <mxGeometry width="50" height="50" relative="1" as="geometry">
            <mxPoint x="277.76" y="270" as="sourcePoint" />
            <mxPoint x="277.76" y="290" as="targetPoint" />
          </mxGeometry>
        </mxCell>
        <mxCell id="SU4ozTy5xE0BFZdqBOHz-10" value="&lt;font style=&quot;font-size: 16px;&quot;&gt;$$L$$&lt;/font&gt;" style="text;html=1;align=center;verticalAlign=middle;whiteSpace=wrap;rounded=0;strokeWidth=0;" parent="1" vertex="1">
          <mxGeometry x="261.76" y="265" width="60" height="30" as="geometry" />
        </mxCell>
        <mxCell id="SU4ozTy5xE0BFZdqBOHz-11" value="&lt;font style=&quot;font-size: 14px;&quot;&gt;$$AAD$$&lt;/font&gt;" style="text;html=1;align=center;verticalAlign=middle;whiteSpace=wrap;rounded=0;strokeWidth=3;" parent="1" vertex="1">
          <mxGeometry x="212.76" y="265" width="60" height="30" as="geometry" />
        </mxCell>
        <mxCell id="SU4ozTy5xE0BFZdqBOHz-14" value="" style="rounded=0;whiteSpace=wrap;html=1;fillColor=none;strokeWidth=3;" parent="1" vertex="1">
          <mxGeometry x="362.76" y="260" width="50" height="40" as="geometry" />
        </mxCell>
        <mxCell id="SU4ozTy5xE0BFZdqBOHz-15" value="&lt;font style=&quot;font-size: 14px;&quot;&gt;$$\int f$$&lt;/font&gt;" style="text;html=1;align=center;verticalAlign=middle;whiteSpace=wrap;rounded=0;strokeWidth=3;" parent="1" vertex="1">
          <mxGeometry x="357.76" y="265" width="60" height="30" as="geometry" />
        </mxCell>
        <mxCell id="SU4ozTy5xE0BFZdqBOHz-17" value="" style="endArrow=blockThin;html=1;rounded=0;endFill=1;strokeWidth=3;" parent="1" edge="1">
          <mxGeometry width="50" height="50" relative="1" as="geometry">
            <mxPoint x="301.76" y="279.8" as="sourcePoint" />
            <mxPoint x="361.76" y="279.8" as="targetPoint" />
          </mxGeometry>
        </mxCell>
        <mxCell id="SU4ozTy5xE0BFZdqBOHz-21" value="" style="endArrow=blockThin;html=1;rounded=0;strokeWidth=3;endFill=1;" parent="1" edge="1">
          <mxGeometry width="50" height="50" relative="1" as="geometry">
            <mxPoint x="361" y="379.83" as="sourcePoint" />
            <mxPoint x="305.75999999999976" y="379.83" as="targetPoint" />
          </mxGeometry>
        </mxCell>
        <mxCell id="SU4ozTy5xE0BFZdqBOHz-24" value="" style="rounded=0;whiteSpace=wrap;html=1;fillColor=none;strokeWidth=3;" parent="1" vertex="1">
          <mxGeometry x="113.75999999999999" y="260" width="50" height="40" as="geometry" />
        </mxCell>
        <mxCell id="SU4ozTy5xE0BFZdqBOHz-25" value="&lt;font style=&quot;font-size: 14px;&quot;&gt;$$PD$$&lt;/font&gt;" style="text;html=1;align=center;verticalAlign=middle;whiteSpace=wrap;rounded=0;strokeWidth=3;" parent="1" vertex="1">
          <mxGeometry x="108.75999999999999" y="265" width="60" height="30" as="geometry" />
        </mxCell>
        <mxCell id="SU4ozTy5xE0BFZdqBOHz-26" value="" style="endArrow=blockThin;html=1;rounded=0;endFill=1;strokeWidth=3;" parent="1" edge="1">
          <mxGeometry width="50" height="50" relative="1" as="geometry">
            <mxPoint x="162.76" y="279.76" as="sourcePoint" />
            <mxPoint x="222.76" y="279.76" as="targetPoint" />
          </mxGeometry>
        </mxCell>
        <mxCell id="SU4ozTy5xE0BFZdqBOHz-27" value="" style="endArrow=blockThin;html=1;rounded=0;endFill=1;strokeWidth=3;" parent="1" edge="1">
          <mxGeometry width="50" height="50" relative="1" as="geometry">
            <mxPoint x="139.52" y="380" as="sourcePoint" />
            <mxPoint x="139.52" y="300" as="targetPoint" />
          </mxGeometry>
        </mxCell>
        <mxCell id="SU4ozTy5xE0BFZdqBOHz-28" value="" style="endArrow=blockThin;html=1;rounded=0;endFill=1;strokeWidth=3;" parent="1" edge="1">
          <mxGeometry width="50" height="50" relative="1" as="geometry">
            <mxPoint x="83" y="280" as="sourcePoint" />
            <mxPoint x="113" y="280" as="targetPoint" />
          </mxGeometry>
        </mxCell>
        <mxCell id="SU4ozTy5xE0BFZdqBOHz-29" value="&lt;font style=&quot;font-size: 18px;&quot;&gt;$$\phi_{i}(z)$$&lt;/font&gt;" style="text;html=1;align=center;verticalAlign=middle;whiteSpace=wrap;rounded=0;strokeWidth=3;" parent="1" vertex="1">
          <mxGeometry x="54.999999999999986" y="243" width="60" height="30" as="geometry" />
        </mxCell>
        <mxCell id="SU4ozTy5xE0BFZdqBOHz-31" value="&lt;font style=&quot;font-size: 18px;&quot;&gt;$$\phi_{e}(z)$$&lt;/font&gt;" style="text;html=1;align=center;verticalAlign=middle;whiteSpace=wrap;rounded=0;strokeWidth=3;" parent="1" vertex="1">
          <mxGeometry x="160" y="245" width="60" height="30" as="geometry" />
        </mxCell>
        <mxCell id="SU4ozTy5xE0BFZdqBOHz-34" value="&lt;font style=&quot;font-size: 18px;&quot;&gt;$$\phi_{o}(\eta)$$&lt;/font&gt;" style="text;html=1;align=center;verticalAlign=middle;whiteSpace=wrap;rounded=0;strokeWidth=3;" parent="1" vertex="1">
          <mxGeometry x="304.26" y="345" width="60" height="30" as="geometry" />
        </mxCell>
        <mxCell id="SU4ozTy5xE0BFZdqBOHz-37" value="&lt;font style=&quot;font-size: 18px;&quot;&gt;$$f_{m}(\eta)$$&lt;/font&gt;" style="text;html=1;align=center;verticalAlign=middle;whiteSpace=wrap;rounded=0;strokeWidth=3;" parent="1" vertex="1">
          <mxGeometry x="301.76" y="244" width="60" height="30" as="geometry" />
        </mxCell>
        <mxCell id="SU4ozTy5xE0BFZdqBOHz-46" value="" style="rounded=0;whiteSpace=wrap;html=1;fillColor=none;strokeWidth=3;" parent="1" vertex="1">
          <mxGeometry x="224.26" y="360" width="80" height="40" as="geometry" />
        </mxCell>
        <mxCell id="SU4ozTy5xE0BFZdqBOHz-47" value="" style="endArrow=none;html=1;rounded=0;exitX=0.5;exitY=1;exitDx=0;exitDy=0;strokeWidth=3;" parent="1" source="SU4ozTy5xE0BFZdqBOHz-46" edge="1">
          <mxGeometry width="50" height="50" relative="1" as="geometry">
            <mxPoint x="214.26" y="410" as="sourcePoint" />
            <mxPoint x="264.26" y="360" as="targetPoint" />
          </mxGeometry>
        </mxCell>
        <mxCell id="SU4ozTy5xE0BFZdqBOHz-48" value="" style="endArrow=blockThin;html=1;rounded=0;endFill=1;strokeWidth=2;" parent="1" edge="1">
          <mxGeometry width="50" height="50" relative="1" as="geometry">
            <mxPoint x="231.26" y="390" as="sourcePoint" />
            <mxPoint x="231.26" y="370" as="targetPoint" />
          </mxGeometry>
        </mxCell>
        <mxCell id="SU4ozTy5xE0BFZdqBOHz-49" value="&lt;font style=&quot;font-size: 16px;&quot;&gt;$$L$$&lt;/font&gt;" style="text;html=1;align=center;verticalAlign=middle;whiteSpace=wrap;rounded=0;strokeWidth=3;" parent="1" vertex="1">
          <mxGeometry x="217.26" y="365" width="60" height="30" as="geometry" />
        </mxCell>
        <mxCell id="SU4ozTy5xE0BFZdqBOHz-50" value="&lt;font style=&quot;font-size: 14px;&quot;&gt;$$Hold$$&lt;/font&gt;" style="text;html=1;align=center;verticalAlign=middle;whiteSpace=wrap;rounded=0;strokeWidth=3;" parent="1" vertex="1">
          <mxGeometry x="252.26" y="365" width="60" height="30" as="geometry" />
        </mxCell>
        <mxCell id="SU4ozTy5xE0BFZdqBOHz-51" value="" style="endArrow=none;html=1;rounded=0;strokeWidth=3;endFill=0;" parent="1" edge="1">
          <mxGeometry width="50" height="50" relative="1" as="geometry">
            <mxPoint x="223.31" y="379.8" as="sourcePoint" />
            <mxPoint x="140" y="380" as="targetPoint" />
          </mxGeometry>
        </mxCell>
        <mxCell id="SU4ozTy5xE0BFZdqBOHz-57" value="" style="rounded=0;whiteSpace=wrap;html=1;fillColor=none;strokeWidth=3;" parent="1" vertex="1">
          <mxGeometry x="363.76" y="56" width="50" height="40" as="geometry" />
        </mxCell>
        <mxCell id="SU4ozTy5xE0BFZdqBOHz-58" value="&lt;font style=&quot;font-size: 14px;&quot;&gt;$$\int f$$&lt;/font&gt;" style="text;html=1;align=center;verticalAlign=middle;whiteSpace=wrap;rounded=0;strokeWidth=3;" parent="1" vertex="1">
          <mxGeometry x="358.76" y="61" width="60" height="30" as="geometry" />
        </mxCell>
        <mxCell id="SU4ozTy5xE0BFZdqBOHz-60" value="" style="endArrow=none;html=1;rounded=0;strokeWidth=3;" parent="1" edge="1">
          <mxGeometry width="50" height="50" relative="1" as="geometry">
            <mxPoint x="412.76" y="76" as="sourcePoint" />
            <mxPoint x="462.76" y="76" as="targetPoint" />
          </mxGeometry>
        </mxCell>
        <mxCell id="SU4ozTy5xE0BFZdqBOHz-61" value="" style="endArrow=none;html=1;rounded=0;strokeWidth=3;" parent="1" edge="1">
          <mxGeometry width="50" height="50" relative="1" as="geometry">
            <mxPoint x="462.76" y="76" as="sourcePoint" />
            <mxPoint x="462.76" y="176" as="targetPoint" />
          </mxGeometry>
        </mxCell>
        <mxCell id="SU4ozTy5xE0BFZdqBOHz-63" value="" style="rounded=0;whiteSpace=wrap;html=1;fillColor=none;strokeWidth=3;" parent="1" vertex="1">
          <mxGeometry x="114.75999999999999" y="56" width="50" height="40" as="geometry" />
        </mxCell>
        <mxCell id="SU4ozTy5xE0BFZdqBOHz-64" value="&lt;font style=&quot;font-size: 14px;&quot;&gt;$$PD$$&lt;/font&gt;" style="text;html=1;align=center;verticalAlign=middle;whiteSpace=wrap;rounded=0;strokeWidth=3;" parent="1" vertex="1">
          <mxGeometry x="109.75999999999999" y="61" width="60" height="30" as="geometry" />
        </mxCell>
        <mxCell id="SU4ozTy5xE0BFZdqBOHz-65" value="" style="endArrow=blockThin;html=1;rounded=0;endFill=1;strokeWidth=3;entryX=0;entryY=0.5;entryDx=0;entryDy=0;" parent="1" target="SU4ozTy5xE0BFZdqBOHz-58" edge="1">
          <mxGeometry width="50" height="50" relative="1" as="geometry">
            <mxPoint x="163.76" y="75.75999999999999" as="sourcePoint" />
            <mxPoint x="223.76" y="75.75999999999999" as="targetPoint" />
          </mxGeometry>
        </mxCell>
        <mxCell id="SU4ozTy5xE0BFZdqBOHz-66" value="" style="endArrow=blockThin;html=1;rounded=0;endFill=1;strokeWidth=3;" parent="1" edge="1">
          <mxGeometry width="50" height="50" relative="1" as="geometry">
            <mxPoint x="140.52" y="176" as="sourcePoint" />
            <mxPoint x="140.52" y="96" as="targetPoint" />
          </mxGeometry>
        </mxCell>
        <mxCell id="SU4ozTy5xE0BFZdqBOHz-67" value="" style="endArrow=blockThin;html=1;rounded=0;endFill=1;strokeWidth=3;" parent="1" edge="1">
          <mxGeometry width="50" height="50" relative="1" as="geometry">
            <mxPoint x="84" y="76" as="sourcePoint" />
            <mxPoint x="114" y="76" as="targetPoint" />
          </mxGeometry>
        </mxCell>
        <mxCell id="SU4ozTy5xE0BFZdqBOHz-68" value="&lt;font style=&quot;font-size: 18px;&quot;&gt;$$\phi_{i}(z)$$&lt;/font&gt;" style="text;html=1;align=center;verticalAlign=middle;whiteSpace=wrap;rounded=0;strokeWidth=3;" parent="1" vertex="1">
          <mxGeometry x="55.999999999999986" y="44" width="60" height="30" as="geometry" />
        </mxCell>
        <mxCell id="SU4ozTy5xE0BFZdqBOHz-69" value="&lt;font style=&quot;font-size: 18px;&quot;&gt;$$\phi_{e}(z)$$&lt;/font&gt;" style="text;html=1;align=center;verticalAlign=middle;whiteSpace=wrap;rounded=0;strokeWidth=3;" parent="1" vertex="1">
          <mxGeometry x="238.26" y="43" width="60" height="30" as="geometry" />
        </mxCell>
        <mxCell id="SU4ozTy5xE0BFZdqBOHz-70" value="&lt;font style=&quot;font-size: 18px;&quot;&gt;$$\phi_{o}(z)$$&lt;/font&gt;" style="text;html=1;align=center;verticalAlign=middle;whiteSpace=wrap;rounded=0;strokeWidth=3;" parent="1" vertex="1">
          <mxGeometry x="297.76" y="140" width="60" height="30" as="geometry" />
        </mxCell>
        <mxCell id="SU4ozTy5xE0BFZdqBOHz-77" value="" style="endArrow=none;html=1;rounded=0;strokeWidth=3;endFill=0;endSize=6;exitX=0;exitY=0;exitDx=0;exitDy=0;" parent="1" edge="1">
          <mxGeometry width="50" height="50" relative="1" as="geometry">
            <mxPoint x="363.76" y="175" as="sourcePoint" />
            <mxPoint x="139.76" y="175" as="targetPoint" />
          </mxGeometry>
        </mxCell>
        <mxCell id="SU4ozTy5xE0BFZdqBOHz-78" value="&lt;font style=&quot;font-size: 16px;&quot;&gt;&lt;b&gt;(a)&lt;/b&gt;&lt;/font&gt;" style="text;html=1;align=center;verticalAlign=middle;whiteSpace=wrap;rounded=0;" parent="1" vertex="1">
          <mxGeometry x="261.76" y="180" width="60" height="30" as="geometry" />
        </mxCell>
        <mxCell id="SU4ozTy5xE0BFZdqBOHz-79" value="&lt;font style=&quot;font-size: 16px;&quot;&gt;&lt;b&gt;(b)&lt;/b&gt;&lt;/font&gt;" style="text;html=1;align=center;verticalAlign=middle;whiteSpace=wrap;rounded=0;" parent="1" vertex="1">
          <mxGeometry x="280" y="400" width="60" height="30" as="geometry" />
        </mxCell>
        <mxCell id="SU4ozTy5xE0BFZdqBOHz-80" value="&lt;font style=&quot;font-size: 18px;&quot;&gt;$$\phi_{f}(z)$$&lt;/font&gt;" style="text;html=1;align=center;verticalAlign=middle;whiteSpace=wrap;rounded=0;strokeWidth=3;" parent="1" vertex="1">
          <mxGeometry x="150" y="340" width="60" height="30" as="geometry" />
        </mxCell>
        <mxCell id="aLblScrPiddCl6OY8vO9-3" value="" style="rounded=0;whiteSpace=wrap;html=1;fillColor=none;strokeWidth=3;" vertex="1" parent="1">
          <mxGeometry x="362.76" y="155" width="50" height="40" as="geometry" />
        </mxCell>
        <mxCell id="aLblScrPiddCl6OY8vO9-4" value="&lt;font style=&quot;font-size: 14px;&quot;&gt;$$\int\phi$$&lt;/font&gt;" style="text;html=1;align=center;verticalAlign=middle;whiteSpace=wrap;rounded=0;strokeWidth=3;" vertex="1" parent="1">
          <mxGeometry x="357.76" y="160" width="60" height="30" as="geometry" />
        </mxCell>
        <mxCell id="aLblScrPiddCl6OY8vO9-5" value="" style="endArrow=none;html=1;rounded=0;strokeWidth=3;startArrow=blockThin;startFill=1;" edge="1" parent="1">
          <mxGeometry width="50" height="50" relative="1" as="geometry">
            <mxPoint x="413.76" y="174.86" as="sourcePoint" />
            <mxPoint x="463.76" y="174.86" as="targetPoint" />
          </mxGeometry>
        </mxCell>
        <mxCell id="aLblScrPiddCl6OY8vO9-6" value="" style="endArrow=none;html=1;rounded=0;strokeWidth=3;" edge="1" parent="1">
          <mxGeometry width="50" height="50" relative="1" as="geometry">
            <mxPoint x="412.76" y="280" as="sourcePoint" />
            <mxPoint x="462.76" y="280" as="targetPoint" />
          </mxGeometry>
        </mxCell>
        <mxCell id="aLblScrPiddCl6OY8vO9-7" value="" style="endArrow=none;html=1;rounded=0;strokeWidth=3;" edge="1" parent="1">
          <mxGeometry width="50" height="50" relative="1" as="geometry">
            <mxPoint x="462.76" y="280" as="sourcePoint" />
            <mxPoint x="462.76" y="380" as="targetPoint" />
          </mxGeometry>
        </mxCell>
        <mxCell id="aLblScrPiddCl6OY8vO9-8" value="" style="rounded=0;whiteSpace=wrap;html=1;fillColor=none;strokeWidth=3;" vertex="1" parent="1">
          <mxGeometry x="362.76" y="359" width="50" height="40" as="geometry" />
        </mxCell>
        <mxCell id="aLblScrPiddCl6OY8vO9-9" value="&lt;font style=&quot;font-size: 14px;&quot;&gt;$$\int\phi$$&lt;/font&gt;" style="text;html=1;align=center;verticalAlign=middle;whiteSpace=wrap;rounded=0;strokeWidth=3;" vertex="1" parent="1">
          <mxGeometry x="357.76" y="364" width="60" height="30" as="geometry" />
        </mxCell>
        <mxCell id="aLblScrPiddCl6OY8vO9-10" value="" style="endArrow=none;html=1;rounded=0;strokeWidth=3;startArrow=blockThin;startFill=1;" edge="1" parent="1">
          <mxGeometry width="50" height="50" relative="1" as="geometry">
            <mxPoint x="413.76" y="378.86" as="sourcePoint" />
            <mxPoint x="463.76" y="378.86" as="targetPoint" />
          </mxGeometry>
        </mxCell>
      </root>
    </mxGraphModel>
  </diagram>
</mxfile>
